<svg width="20" height="26" viewBox="0 0 20 26" fill="none" xmlns="http://www.w3.org/2000/svg">
<path d="M19.5227 10.5078C19.9133 7.85156 17.8977 6.41406 15.1165 5.46094L16.0227 1.85156L13.8352 1.30469L12.9602 4.82031C12.3821 4.67969 11.7883 4.53906 11.1946 4.41406L12.0696 0.882813L9.88208 0.335938L8.99145 3.92969C8.50708 3.82031 8.03833 3.71094 7.5852 3.60156V3.58594L4.55395 2.83594L3.97583 5.17969C3.97583 5.17969 5.60083 5.55469 5.56958 5.57031C6.4602 5.78906 6.61645 6.38281 6.5852 6.85156L5.55395 10.9609C5.61645 10.9766 5.69458 10.9922 5.78833 11.0391C5.7102 11.0234 5.63208 11.0078 5.55395 10.9766L4.11645 16.7266C4.00708 16.9922 3.72583 17.3984 3.11645 17.2422C3.13208 17.2734 1.5227 16.8516 1.5227 16.8516L0.428955 19.3672L3.28833 20.0859C3.81958 20.2266 4.3352 20.3516 4.85083 20.4922L3.94458 24.1328L6.13208 24.6797L7.03833 21.0703C7.63208 21.2266 8.22583 21.3828 8.78833 21.5234L7.8977 25.1172L10.0852 25.6641L10.9915 22.0234C14.7415 22.7266 17.554 22.4453 18.7258 19.0547C19.679 16.3359 18.679 14.7578 16.7102 13.7266C18.1633 13.3984 19.2415 12.4453 19.5227 10.5078ZM14.5071 17.5391C13.8352 20.2578 9.24145 18.7891 7.75708 18.4141L8.9602 13.5859C10.4446 13.9609 15.2258 14.6953 14.5071 17.5391ZM15.1946 10.4609C14.5696 12.9453 10.7571 11.6797 9.5227 11.3672L10.6165 6.99219C11.8508 7.30469 15.8352 7.88281 15.1946 10.4609Z" fill="white"/>
</svg>
